# xmcd CD database file generated by Grip 3.0.7
# Track frame offsets:
#       150
#       28342
#       60460
#       87572
#       112222
#       146485
#       176252
#       204402
#       233217
#       262627
#       303422
# Disc length: 4482 seconds
# Revision: 6
# Processed by: cddbd v1.5.1PL0 Copyright (c) Steve Scherf et al.
# Submitted via: Grip 3.0.7
#
DISCID=9311800b
DTITLE=Tesox - View Through the Past
DYEAR=1996
DGENRE=Techno
TTITLE0=So what you want me to do
TTITLE1=Prophetic steps
TTITLE2=Z3
TTITLE3=Funky bassline ('96 remake)
TTITLE4=Groovy bubbles
TTITLE5=Braindead III
TTITLE6=Go ahead London
TTITLE7=Wings
TTITLE8=Dark emotions
TTITLE9=Yozuko
TTITLE10=Braindead I
EXTD=
EXTT0=
EXTT1=
EXTT2=
EXTT3=
EXTT4=
EXTT5=
EXTT6=
EXTT7=
EXTT8=
EXTT9=
EXTT10=
PLAYORDER=
